<?xml version="1.0" encoding="utf-8"?>
<svg viewBox="60.495 80.885 142.209 36.728" xmlns="http://www.w3.org/2000/svg">
  <g>
    <path d="M 98.661 107.496 Q 97.437 107.139 96.965 106.782 Q 96.494 106.425 96.494 105.889 Q 96.494 105.481 96.723 104.742 Q 96.953 104.002 97.399 102.995 Q 97.845 101.988 98.47 100.764 Q 99.095 99.54 99.885 98.137 Q 99.222 98.112 98.699 98.099 Q 98.177 98.086 97.845 98.086 Q 97.998 97.704 98.712 97.423 Q 99.426 97.143 100.599 96.939 Q 101.594 95.281 102.728 93.777 Q 103.863 92.272 105.011 91.01 Q 106.158 89.748 107.306 88.792 Q 108.453 87.835 109.499 87.274 Q 109.524 87.096 109.537 86.968 Q 109.55 86.841 109.55 86.79 Q 109.907 86.79 110.506 86.968 Q 111.105 87.147 111.679 87.402 Q 112.253 87.657 112.699 87.925 Q 113.145 88.192 113.196 88.371 Q 112.355 89.85 111.539 92.795 Q 110.723 95.74 110.187 99.846 Q 110.06 100.866 109.97 102.166 Q 109.881 103.467 109.881 105.073 Q 109.881 105.634 109.881 106.221 Q 109.881 106.807 109.932 107.445 Q 109.881 107.47 109.83 107.47 Q 109.779 107.47 109.626 107.47 Q 109.269 107.47 108.797 107.356 Q 108.326 107.241 107.879 107.075 Q 107.433 106.909 107.114 106.705 Q 106.796 106.501 106.719 106.348 Q 106.694 106.017 106.694 105.698 Q 106.694 105.379 106.694 105.022 Q 106.694 103.441 106.808 101.809 Q 106.923 100.177 107.204 98.443 Q 106.847 98.418 106.26 98.38 Q 105.674 98.341 104.947 98.316 Q 104.22 98.29 103.391 98.252 Q 102.563 98.214 101.772 98.188 Q 101.16 99.336 100.625 100.471 Q 100.089 101.605 99.707 102.753 Q 99.273 103.977 99.005 105.201 Q 98.738 106.425 98.661 107.496 Z M 108.504 92.17 Q 108.606 91.813 108.746 91.189 Q 108.887 90.564 109.014 89.875 Q 108.377 90.105 107.599 90.717 Q 106.821 91.329 105.992 92.234 Q 105.164 93.139 104.309 94.274 Q 103.455 95.409 102.665 96.684 Q 104.807 96.505 107.535 96.454 Q 107.739 95.383 107.981 94.325 Q 108.224 93.267 108.504 92.17 Z" transform="matrix(0.925871, 0, 0, 0.69557, 12.312973, 31.098846)" style="fill: rgb(51, 51, 51); white-space: pre;"/>
    <path d="M 118.545 93.649 Q 119.055 93.649 119.718 93.955 Q 120.381 94.261 120.891 94.746 Q 120.763 93.726 120.572 92.821 Q 120.381 91.915 120.011 90.946 Q 119.641 89.977 119.029 88.83 Q 118.417 87.682 117.499 86.203 Q 117.576 85.974 117.844 85.668 Q 118.111 85.362 118.456 85.094 Q 118.8 84.826 119.17 84.622 Q 119.539 84.418 119.871 84.367 Q 120.585 85.158 121.222 86.344 Q 121.86 87.529 122.344 88.894 Q 122.829 90.258 123.097 91.711 Q 123.364 93.165 123.364 94.491 Q 123.364 95.817 123.071 97.219 Q 122.778 98.622 122.255 99.961 Q 121.732 101.299 121.044 102.498 Q 120.355 103.696 119.552 104.64 Q 118.749 105.583 117.882 106.183 Q 117.015 106.782 116.148 106.935 Q 114.388 106.731 113.458 105.8 Q 112.527 104.869 112.527 103.237 Q 112.527 102.37 112.795 101.35 Q 113.062 100.33 113.509 99.323 Q 113.955 98.316 114.554 97.36 Q 115.153 96.403 115.829 95.638 Q 116.505 94.873 117.193 94.338 Q 117.882 93.802 118.545 93.649 Z M 115.944 105.915 Q 116.836 105.609 117.729 104.563 Q 118.621 103.518 119.335 102.103 Q 120.049 100.687 120.496 99.068 Q 120.942 97.449 120.942 95.944 Q 120.942 95.511 120.942 95.409 Q 120.942 95.307 120.916 95.205 Q 120.304 95.46 119.616 96.072 Q 118.927 96.684 118.239 97.487 Q 117.55 98.29 116.938 99.234 Q 116.326 100.177 115.842 101.121 Q 115.357 102.064 115.077 102.931 Q 114.796 103.798 114.796 104.461 Q 114.796 105.736 115.944 105.915 Z" transform="matrix(0.925871, 0, 0, 0.69557, 12.312973, 31.098846)" style="fill: rgb(51, 51, 51); white-space: pre;"/>
    <path d="M 122.156 113.998 Q 121.799 113.896 121.748 113.233 Q 121.646 112.902 121.608 112.443 Q 121.57 111.984 121.57 111.397 Q 121.57 110.862 121.748 109.931 Q 121.927 109 122.246 107.827 Q 122.564 106.654 123.023 105.29 Q 123.482 103.926 124.043 102.523 Q 124.732 100.764 125.242 99.476 Q 125.752 98.188 126.096 97.245 Q 126.44 96.301 126.657 95.689 Q 126.874 95.077 127.001 94.644 Q 127.103 94.338 127.307 93.904 Q 127.511 93.471 127.779 93.025 Q 128.047 92.578 128.327 92.183 Q 128.608 91.788 128.837 91.584 Q 129.73 91.711 130.52 92.043 Q 131.311 92.374 131.489 92.68 Q 131.132 93.012 130.673 93.713 Q 130.214 94.414 129.781 95.243 Q 129.347 96.072 128.99 96.939 Q 128.633 97.806 128.455 98.469 Q 128.71 98.035 129.118 97.525 Q 129.526 97.015 130.367 96.123 Q 131.311 95.154 132.14 94.631 Q 132.968 94.108 133.58 94.108 Q 134.549 94.108 135.174 94.644 Q 135.799 95.179 135.799 96.021 Q 135.799 97.857 135.187 99.655 Q 134.575 101.452 133.427 102.906 Q 132.994 103.467 132.407 103.977 Q 131.821 104.487 131.183 104.882 Q 130.546 105.277 129.934 105.507 Q 129.322 105.736 128.837 105.736 Q 128.378 105.736 128.034 105.545 Q 127.69 105.354 127.562 105.073 Q 128.557 104.487 129.5 103.441 Q 130.444 102.396 131.247 101.032 Q 132.05 99.667 132.65 98.086 Q 133.249 96.505 133.555 94.873 Q 132.586 95.383 131.808 95.983 Q 131.03 96.582 130.265 97.551 Q 129.347 98.673 128.812 99.361 Q 128.276 100.05 127.932 100.534 Q 127.588 101.019 127.371 101.44 Q 127.154 101.86 126.899 102.472 Q 126.542 103.288 126.071 104.627 Q 125.599 105.966 125.102 107.623 Q 124.604 109.281 124.107 111.155 Q 123.61 113.029 123.151 114.891 Q 122.87 114.84 122.666 114.483 Q 122.462 114.253 122.373 114.151 Q 122.284 114.049 122.156 113.998 Z" transform="matrix(0.925871, 0, 0, 0.69557, 12.312973, 31.098846)" style="fill: rgb(51, 51, 51); white-space: pre;"/>
    <path d="M 136.098 105.048 Q 136.226 104.308 136.544 103.097 Q 136.863 101.886 137.297 100.522 Q 137.73 99.157 138.215 97.78 Q 138.699 96.403 139.158 95.307 Q 139.49 94.516 139.745 94.07 Q 140 93.624 140.306 93.318 Q 140.663 93.369 141.045 93.496 Q 141.428 93.624 141.785 93.802 Q 142.142 93.981 142.422 94.172 Q 142.703 94.363 142.856 94.542 Q 142.167 95.358 141.644 96.403 Q 141.122 97.449 140.586 99.081 Q 141.963 97.857 143.021 96.735 Q 144.08 95.613 144.998 94.236 Q 145.151 94.108 145.533 94.108 Q 145.89 94.108 146.222 94.223 Q 146.553 94.338 146.681 94.542 Q 146.222 95.766 146.222 96.964 Q 146.222 98.086 146.553 98.647 Q 146.528 98.8 146.209 99.234 Q 145.89 99.667 145.508 100.05 Q 144.819 99.693 144.284 99.068 Q 143.748 98.443 143.493 97.704 Q 142.295 98.545 141.453 99.349 Q 140.612 100.152 140.012 101.134 Q 139.413 102.115 138.992 103.39 Q 138.572 104.665 138.189 106.425 Q 137.96 106.399 137.641 106.259 Q 137.322 106.119 137.003 105.915 Q 136.685 105.711 136.43 105.481 Q 136.175 105.252 136.098 105.048 Z" transform="matrix(0.925871, 0, 0, 0.69557, 12.312973, 31.098846)" style="fill: rgb(51, 51, 51); white-space: pre;"/>
    <path d="M 149.988 106.45 Q 148.534 106.297 147.667 105.175 Q 146.8 104.053 146.8 102.319 Q 146.8 101.299 147.106 100.203 Q 147.412 99.106 147.973 98.074 Q 148.534 97.041 149.299 96.123 Q 150.064 95.205 150.957 94.542 Q 152.359 93.496 153.583 93.496 Q 154.399 93.93 155.19 95.307 Q 155.317 95.307 155.419 95.294 Q 155.521 95.281 155.649 95.281 Q 157 95.281 157 97.678 Q 157 99.285 156.477 100.726 Q 155.955 102.166 155.024 103.339 Q 154.093 104.512 152.805 105.316 Q 151.518 106.119 149.988 106.45 Z M 151.288 98.418 Q 150.855 99.004 150.472 99.693 Q 150.09 100.381 149.809 101.083 Q 149.529 101.784 149.376 102.434 Q 149.223 103.084 149.223 103.594 Q 149.223 104.206 149.427 104.767 Q 149.631 105.328 149.886 105.405 Q 151.033 105.15 151.989 104.449 Q 152.946 103.747 153.647 102.702 Q 154.348 101.656 154.743 100.33 Q 155.139 99.004 155.139 97.5 Q 155.139 96.837 155.062 96.454 Q 154.986 96.072 154.807 95.791 Q 153.685 96.123 152.805 96.862 Q 151.926 97.602 151.288 98.418 Z" transform="matrix(0.925871, 0, 0, 0.69557, 12.312973, 31.098846)" style="fill: rgb(51, 51, 51); white-space: pre;"/>
    <path d="M 159.477 95.791 Q 159.349 95.638 159.247 95.141 Q 159.145 94.644 159.145 94.287 Q 159.808 94.338 160.42 94.376 Q 161.032 94.414 161.542 94.44 Q 161.925 93.675 162.371 92.923 Q 162.817 92.17 163.238 91.546 Q 163.659 90.921 164.028 90.487 Q 164.398 90.054 164.602 89.926 Q 164.857 89.926 165.252 90.016 Q 165.648 90.105 166.056 90.245 Q 166.464 90.385 166.795 90.538 Q 167.127 90.691 167.254 90.844 Q 166.489 91.813 165.941 92.642 Q 165.393 93.471 164.755 94.542 Q 165.265 94.542 165.788 94.516 Q 166.311 94.491 166.846 94.44 Q 166.974 94.567 167.05 94.759 Q 167.127 94.95 167.127 95.154 Q 165.877 95.613 164.092 95.664 Q 163.455 96.888 162.957 98.099 Q 162.46 99.31 162.116 100.432 Q 161.772 101.554 161.58 102.549 Q 161.389 103.543 161.389 104.334 Q 161.389 105.456 162.231 105.583 Q 162.996 105.481 163.684 105.201 Q 164.373 104.92 164.908 104.487 Q 165.061 104.716 165.087 104.869 Q 164.934 105.099 164.564 105.405 Q 164.194 105.711 163.761 106.004 Q 163.327 106.297 162.919 106.501 Q 162.511 106.705 162.307 106.731 Q 161.67 106.705 161.032 106.45 Q 160.395 106.195 159.872 105.813 Q 159.349 105.43 159.018 104.959 Q 158.686 104.487 158.686 104.028 Q 158.686 103.416 158.852 102.485 Q 159.018 101.554 159.324 100.458 Q 159.63 99.361 160.038 98.163 Q 160.446 96.964 160.93 95.791 Z" transform="matrix(0.925871, 0, 0, 0.69557, 12.312973, 31.098846)" style="fill: rgb(51, 51, 51); white-space: pre;"/>
    <path d="M 176.072 95.001 Q 175.97 96.582 175.511 97.717 Q 175.052 98.851 174.198 99.706 Q 173.343 100.56 172.119 101.248 Q 170.895 101.937 169.263 102.574 Q 169.263 102.727 169.251 102.893 Q 169.238 103.059 169.238 103.237 Q 169.238 103.569 169.289 103.926 Q 169.34 104.283 169.467 104.589 Q 169.595 104.895 169.824 105.086 Q 170.054 105.277 170.411 105.277 Q 171.099 105.277 171.762 104.971 Q 172.425 104.665 173.025 104.219 Q 173.624 103.773 174.147 103.25 Q 174.669 102.727 175.077 102.294 Q 175.332 102.523 175.511 102.727 Q 174.363 104.257 172.999 105.265 Q 171.635 106.272 170.411 106.552 Q 168.651 106.348 167.67 105.265 Q 166.688 104.181 166.688 102.651 Q 166.688 101.605 166.981 100.522 Q 167.274 99.438 167.797 98.431 Q 168.32 97.423 169.021 96.531 Q 169.722 95.638 170.526 94.975 Q 171.329 94.312 172.183 93.93 Q 173.037 93.547 173.879 93.547 Q 175.052 93.7 176.072 95.001 Z M 174.312 95.842 Q 173.624 95.944 172.884 96.403 Q 172.145 96.862 171.495 97.627 Q 170.844 98.392 170.309 99.412 Q 169.773 100.432 169.467 101.605 Q 171.507 100.585 172.859 99.094 Q 174.21 97.602 174.312 95.842 Z" transform="matrix(0.925871, 0, 0, 0.69557, 12.312973, 31.098846)" style="fill: rgb(51, 51, 51); white-space: pre;"/>
    <path d="M 172.098 113.157 Q 172.098 113.004 172.2 112.876 Q 172.302 112.749 172.43 112.621 Q 172.736 112.902 172.953 113.055 Q 173.169 113.208 173.361 113.31 Q 173.552 113.412 173.756 113.437 Q 173.96 113.463 174.24 113.463 Q 175.566 113.463 176.765 112.762 Q 177.963 112.06 179.022 110.734 Q 180.08 109.408 180.947 107.496 Q 181.814 105.583 182.477 103.161 Q 182.171 103.467 181.725 103.837 Q 181.278 104.206 180.794 104.538 Q 180.309 104.869 179.838 105.15 Q 179.366 105.43 179.034 105.558 Q 178.601 105.481 178.231 105.188 Q 177.861 104.895 177.581 104.461 Q 177.3 104.028 177.147 103.48 Q 176.994 102.931 176.994 102.319 Q 176.994 101.325 177.364 100.279 Q 177.734 99.234 178.346 98.227 Q 178.958 97.219 179.787 96.327 Q 180.615 95.434 181.546 94.771 Q 182.477 94.108 183.433 93.713 Q 184.389 93.318 185.307 93.318 Q 186.2 93.318 186.646 93.688 Q 187.092 94.057 187.296 94.95 Q 187.016 94.797 186.582 94.797 Q 185.97 94.797 185.167 95.281 Q 184.364 95.766 183.535 96.544 Q 182.706 97.321 181.89 98.329 Q 181.074 99.336 180.45 100.381 Q 179.825 101.427 179.43 102.421 Q 179.034 103.416 179.034 104.206 Q 179.034 104.385 179.06 104.423 Q 179.085 104.461 179.136 104.461 Q 179.366 104.461 179.761 104.206 Q 180.156 103.951 180.654 103.556 Q 181.151 103.161 181.686 102.638 Q 182.222 102.115 182.706 101.58 Q 183.803 100.356 184.708 98.839 Q 185.613 97.321 186.149 95.893 Q 186.837 95.944 187.373 96.123 Q 187.908 96.301 188.112 96.505 Q 187.245 98.494 186.723 99.846 Q 186.2 101.197 185.817 102.243 Q 185.129 104.079 184.53 105.596 Q 183.93 107.113 183.306 108.401 Q 182.681 109.689 181.954 110.798 Q 181.227 111.907 180.309 112.927 Q 179.876 113.412 179.328 113.782 Q 178.779 114.151 178.206 114.406 Q 177.632 114.661 177.084 114.789 Q 176.535 114.916 176.076 114.916 Q 175.464 114.916 174.827 114.776 Q 174.189 114.636 173.641 114.394 Q 173.093 114.151 172.685 113.833 Q 172.277 113.514 172.098 113.157 Z" transform="matrix(0.925871, 0, 0, 0.69557, 12.312973, 31.098846)" style="fill: rgb(51, 51, 51); white-space: pre;"/>
    <path d="M 197.849 95.001 Q 197.747 96.582 197.288 97.717 Q 196.829 98.851 195.975 99.706 Q 195.121 100.56 193.897 101.248 Q 192.673 101.937 191.041 102.574 Q 191.041 102.727 191.028 102.893 Q 191.015 103.059 191.015 103.237 Q 191.015 103.569 191.066 103.926 Q 191.117 104.283 191.245 104.589 Q 191.372 104.895 191.602 105.086 Q 191.831 105.277 192.188 105.277 Q 192.877 105.277 193.54 104.971 Q 194.203 104.665 194.802 104.219 Q 195.401 103.773 195.924 103.25 Q 196.447 102.727 196.855 102.294 Q 197.11 102.523 197.288 102.727 Q 196.141 104.257 194.776 105.265 Q 193.412 106.272 192.188 106.552 Q 190.429 106.348 189.447 105.265 Q 188.465 104.181 188.465 102.651 Q 188.465 101.605 188.758 100.522 Q 189.052 99.438 189.574 98.431 Q 190.097 97.423 190.798 96.531 Q 191.5 95.638 192.303 94.975 Q 193.106 94.312 193.96 93.93 Q 194.815 93.547 195.656 93.547 Q 196.829 93.7 197.849 95.001 Z M 196.09 95.842 Q 195.401 95.944 194.662 96.403 Q 193.922 96.862 193.272 97.627 Q 192.622 98.392 192.086 99.412 Q 191.551 100.432 191.245 101.605 Q 193.285 100.585 194.636 99.094 Q 195.988 97.602 196.09 95.842 Z" transform="matrix(0.925871, 0, 0, 0.69557, 12.312973, 31.098846)" style="fill: rgb(51, 51, 51); white-space: pre;"/>
    <g transform="matrix(0.006486, 0, 0, -0.006043, 65.700073, 114.722427)" fill="#000000" stroke="none" style="">
      <path d="M1983 4970 c-79 -48 -82 -150 -7 -209 50 -40 154 -18 184 39 17 31 15 92 -4 128 -31 60 -112 80 -173 42z"/>
      <path d="M3008 4974 c-52 -28 -77 -120 -48 -174 17 -33 70 -60 116 -60 47 0 86 25 109 70 55 107 -70 223 -177 164z"/>
      <path d="M937 4336 c-92 -33 -155 -116 -164 -215 -10 -107 36 -195 129 -247 69 -37 170 -41 233 -7 92 49 139 127 140 228 0 59 -5 78 -29 123 -16 28 -44 63 -62 77 -69 53 -168 69 -247 41z"/>
      <path d="M1945 4326 c-66 -30 -120 -91 -139 -157 -20 -65 -20 -83 -1 -145 40 -135 180 -210 316 -171 109 32 179 127 179 242 0 185 -189 309 -355 231z"/>
      <path d="M2986 4335 c-140 -50 -207 -218 -140 -353 32 -65 84 -108 153 -129 136 -39 276 36 316 171 19 62 19 80 -1 145 -40 135 -195 214 -328 166z"/>
      <path d="M4008 4335 c-59 -22 -102 -60 -134 -117 -24 -45 -29 -64 -29 -123 1 -101 48 -179 140 -228 54 -29 163 -30 219 -2 183 89 195 349 21 451 -57 33 -159 42 -217 19z"/>
      <path d="M1987 3448 c-117 -15 -233 -103 -284 -214 -89 -195 -9 -416 185 -507 61 -29 76 -32 162 -32 87 0 101 3 161 32 80 39 150 111 187 191 23 49 27 70 27 152 0 83 -4 103 -27 153 -37 79 -78 129 -137 166 -85 55 -170 73 -274 59z"/>
      <path d="M3012 3449 c-119 -16 -230 -100 -285 -217 -29 -61 -32 -76 -32 -162 0 -82 4 -103 27 -152 103 -219 365 -294 566 -160 104 69 164 182 164 312 0 238 -200 411 -440 379z"/>
      <path d="M942 3311 c-108 -37 -179 -144 -170 -256 12 -140 114 -235 254 -235 114 0 209 70 241 179 39 136 -36 276 -171 316 -64 19 -89 18 -154 -4z"/>
      <path d="M4020 3315 c-131 -41 -206 -182 -167 -316 65 -221 366 -244 474 -36 8 17 18 58 21 92 9 115 -68 226 -179 259 -63 19 -89 19 -149 1z"/>
      <path d="M193 3180 c-113 -68 -64 -234 68 -232 49 1 75 16 99 55 69 113 -55 245 -167 177z"/>
      <path d="M4804 3181 c-18 -11 -39 -30 -48 -42 -34 -49 -9 -151 44 -179 31 -17 92 -15 128 4 60 31 80 112 42 173 -36 60 -108 79 -166 44z"/>
      <path d="M1945 2417 c-239 -80 -344 -322 -236 -542 139 -282 548 -275 684 13 29 61 32 76 32 162 0 82 -4 103 -27 152 -37 79 -108 152 -185 190 -54 26 -79 32 -146 35 -50 2 -98 -2 -122 -10z"/>
      <path d="M2963 2415 c-103 -32 -194 -113 -241 -213 -23 -49 -27 -70 -27 -152 0 -86 3 -101 32 -162 91 -193 312 -274 506 -185 219 100 288 380 143 578 -87 118 -272 179 -413 134z"/>
      <path d="M915 2276 c-121 -56 -177 -202 -125 -324 29 -68 93 -126 161 -146 65 -20 83 -20 145 -1 135 40 210 180 171 316 -44 148 -210 222 -352 155z"/>
      <path d="M3982 2274 c-65 -32 -108 -84 -129 -153 -29 -101 0 -197 79 -265 40 -35 117 -66 163 -66 50 0 128 33 170 71 134 124 103 340 -60 415 -71 33 -154 33 -223 -2z"/>
      <path d="M229 2170 c-44 -12 -68 -30 -84 -60 -56 -108 58 -230 165 -175 44 23 70 62 70 107 0 41 -18 86 -44 107 -22 18 -76 29 -107 21z"/>
      <path d="M4833 2170 c-59 -13 -93 -60 -93 -128 0 -45 26 -84 70 -107 107 -55 221 67 165 175 -24 46 -86 72 -142 60z"/>
      <path d="M949 1267 c-124 -47 -188 -143 -176 -268 12 -131 116 -227 248 -229 96 0 178 47 225 132 24 45 29 64 29 123 -1 78 -16 118 -69 173 -64 68 -177 99 -257 69z"/>
      <path d="M1980 1271 c-50 -15 -89 -41 -124 -83 -35 -40 -66 -118 -66 -163 0 -50 33 -128 71 -170 124 -134 340 -103 415 60 49 103 21 235 -64 305 -60 49 -163 72 -232 51z"/>
      <path d="M2990 1265 c-141 -45 -211 -212 -146 -350 56 -121 202 -177 324 -125 90 39 162 144 162 235 0 81 -67 188 -143 226 -52 27 -139 33 -197 14z"/>
      <path d="M4030 1271 c-46 -15 -85 -39 -116 -73 -53 -55 -68 -95 -69 -173 0 -59 5 -78 30 -123 68 -124 229 -169 350 -97 173 101 161 363 -20 449 -42 20 -137 30 -175 17z"/>
      <path d="M1976 359 c-56 -44 -70 -110 -36 -166 50 -82 174 -83 216 -1 19 36 21 97 4 128 -30 57 -134 79 -184 39z"/>
      <path d="M3003 360 c-39 -24 -54 -50 -55 -99 0 -49 25 -97 62 -116 108 -56 230 58 175 165 -35 68 -116 91 -182 50z"/>
    </g>
  </g>
</svg>
